<?xml version="1.0" encoding="utf-8"?>
<!-- Generator: Adobe Illustrator 18.0.0, SVG Export Plug-In . SVG Version: 6.00 Build 0)  -->
<!DOCTYPE svg PUBLIC "-//W3C//DTD SVG 1.1//EN" "http://www.w3.org/Graphics/SVG/1.1/DTD/svg11.dtd">
<svg version="1.1" id="Layer_1" xmlns="http://www.w3.org/2000/svg" xmlns:xlink="http://www.w3.org/1999/xlink" x="0px" y="0px"
	 viewBox="0 0 605 117" width="605" height="117" xml:space="preserve">
<g>
	<path fill="#FFFFFF" d="M53.8,105.1c-5.5,4.7-12.9,7.1-20.5,7.1C18.2,112.2,4,102.4,4,85.7c0-16.9,14.5-26.3,29.4-26.3
		c7.3,0,14.5,2.2,20,6.3l-6.6,7.7c-3.7-2.6-8.6-3.9-13.4-3.9c-9.6,0-18.9,5.2-18.9,16.6c0,11.2,9.5,16.5,19,16.5
		c5.1,0,10.7-2,14.5-5.3L53.8,105.1z"/>
	<path fill="#FFFFFF" d="M202.3,110.7V61h9.8v49.7H202.3z"/>
	<path fill="#FFFFFF" d="M367.7,110.7V61H378v39.7h26.4v10H367.7z"/>
	<path fill="#FFFFFF" d="M568.3,100.7h31.1v10h-40.8V61h40.8v9.9h-31.1V83c4.3-2.5,9.8-2.9,15.5-2.9h7.3v9.8h-7.3
		c-9.2,0-11.2,0.6-15.5,2.9V100.7z"/>
	<path fill="#FFFFFF" d="M150.2,100c-2.5,0-6-0.4-8.3-4.4l-3.1-5.1c7.2-2.2,11.4-6.9,11.4-14.5c0-8.6-6.5-15-15.6-15h-32.1v49.7
		h10.1V90.4h13.5c0.1,0,0.3,0,0.4,0h0.7l7.7,12.4c4.6,7.5,9.4,7.9,14.5,7.9h4.3V100H150.2z M134.6,80.4L134.6,80.4h-22v-9.6h20.3
		c3.5,0,7.3,0.4,7.3,4.8C140.1,78.8,137.5,80.4,134.6,80.4z"/>
	<path fill="#FFFFFF" d="M292.9,61H290h-2.9l-26.2,49.7h10.8l3.9-7.5h28.8l3.9,7.5h10.8L292.9,61z M280.2,94.2l9.7-18.4l9.7,18.4
		H280.2z"/>
	<g>
		<polygon fill="#FFFFFF" points="502.7,61 481.5,89.1 460.2,61 453,61 453,68.9 453,110.7 463.9,110.7 463.9,81.6 481.5,105
			499,81.6 499,110.7 509.8,110.7 509.8,61 		"/>
	</g>
</g>
<g>
	<path fill="#FFFFFF" d="M215.3,11.6v-1h16.3v1"/>
	<path fill="#FFFFFF" d="M249.9,4.3h6.2v1.4h-4.7V9h4.4v1.4h-4.4v3.3h4.7v1.4h-6.4V4.2h0.2V4.3z"/>
	<path fill="#FFFFFF" d="M266.9,10.6l-1.2-0.7c-0.7-0.4-1.2-0.9-1.5-1.3s-0.5-0.9-0.5-1.5c0-0.8,0.3-1.5,0.9-2.1s1.3-0.8,2.4-0.8
		c0.9,0,1.7,0.2,2.5,0.7v1.7c-0.8-0.6-1.6-1-2.6-1c-0.5,0-0.9,0.1-1.2,0.3c-0.3,0.2-0.5,0.5-0.5,0.9c0,0.3,0.1,0.6,0.4,0.9
		c0.2,0.3,0.6,0.6,1.1,0.9l1.2,0.7c1.3,0.8,2,1.9,2,3.1c0,0.9-0.3,1.5-0.9,2.2c-0.6,0.5-1.3,0.8-2.3,0.8s-2.1-0.3-3-1v-2
		c0.8,1,1.9,1.6,2.9,1.6c0.5,0,0.9-0.1,1.2-0.4c0.3-0.3,0.5-0.6,0.5-1C268.4,11.8,267.9,11.2,266.9,10.6z"/>
	<path fill="#FFFFFF" d="M277,4.2h9.2v1.4h-3.8v9.6h-1.5V5.6h-3.7V4.2H277z"/>
	<path fill="#FFFFFF" d="M306.8,4.3h1.5v10.9h-1.5V4.3z"/>
	<path fill="#FFFFFF" d="M321,15.3l-0.9-1.1c0.8-0.5,1.5-1.1,2.2-1.9c0.6-0.7,1-1.4,1.2-2.3c-0.5,0.3-1,0.4-1.7,0.4
		c-0.8,0-1.5-0.3-2.2-0.9c-0.6-0.6-0.9-1.3-0.9-2.3s0.3-1.6,0.9-2.3C320.2,4.3,321,4,322,4s1.9,0.4,2.6,1.1c0.6,0.7,1,1.7,1,2.9
		c0,1.3-0.4,2.7-1.2,4C323.4,13.5,322.4,14.5,321,15.3z M323.7,8.5c0.1-0.4,0.1-0.7,0.1-0.8c0-0.6-0.2-1.1-0.5-1.5s-0.8-0.6-1.3-0.6
		s-0.9,0.2-1.2,0.5c-0.3,0.3-0.5,0.7-0.5,1.3c0,0.5,0.2,0.9,0.5,1.2c0.3,0.3,0.8,0.5,1.3,0.5C322.6,9.2,323.2,9,323.7,8.5z"/>
	<path fill="#FFFFFF" d="M333.2,7.2c0-0.8,0.3-1.5,0.9-2.2c0.6-0.6,1.4-0.9,2.4-0.9c0.9,0,1.6,0.3,2.3,0.9c0.6,0.6,0.9,1.3,0.9,2.2
		c0,0.9-0.4,1.7-1.3,2.4c1,0.6,1.5,1.4,1.5,2.6c0,0.9-0.3,1.6-1,2.3c-0.6,0.6-1.4,0.9-2.5,0.9s-1.9-0.3-2.5-0.9s-1-1.3-1-2.3
		c0-1.1,0.5-2,1.5-2.6c-0.5-0.4-0.8-0.7-1-1.1C333.3,8.1,333.2,7.7,333.2,7.2z M338.3,12.2V12c0-0.5-0.2-0.9-0.5-1.2
		s-0.8-0.5-1.3-0.5s-1,0.2-1.3,0.5s-0.5,0.7-0.5,1.2s0.2,0.9,0.5,1.2c0.3,0.3,0.8,0.5,1.4,0.5c0.5,0,1-0.1,1.3-0.4
		C338.2,13.1,338.3,12.8,338.3,12.2z M338.2,7.3c0-0.5-0.2-0.8-0.5-1.1s-0.7-0.4-1.2-0.4s-0.9,0.1-1.2,0.4c-0.3,0.3-0.5,0.7-0.5,1.1
		s0.2,0.8,0.5,1.1c0.3,0.3,0.7,0.5,1.2,0.5s0.9-0.2,1.2-0.5C338.1,8.1,338.2,7.7,338.2,7.3z"/>
	<path fill="#FFFFFF" d="M352.5,4.1h0.6v6.2h1.2v1.3h-1.2v3.6h-1.5v-3.6h-4.5v-0.7L352.5,4.1z M351.7,10.3V7.1l-2.6,3.2H351.7z"/>
	<path fill="#FFFFFF" d="M371.9,10.6h16.3v1h-16.3V10.6z"/>
</g>
</svg>
