<?xml version="1.0" encoding="utf-8"?>
<!-- Generator: Adobe Illustrator 18.0.0, SVG Export Plug-In . SVG Version: 6.00 Build 0)  -->
<!DOCTYPE svg PUBLIC "-//W3C//DTD SVG 1.1//EN" "http://www.w3.org/Graphics/SVG/1.1/DTD/svg11.dtd">
<svg version="1.1" id="Layer_1" xmlns="http://www.w3.org/2000/svg" xmlns:xlink="http://www.w3.org/1999/xlink" x="0px" y="0px"
	 width="400" height='37' viewBox="0 0 399.7 36.4" enable-background="new 0 0 399.7 36.4" xml:space="preserve">
<g>
	<g>
		<path fill="#FFFFFF" d="M43.1,29.5c-3.4,2.9-7.9,4.4-12.6,4.4c-9.3,0-18.1-6.1-18.1-16.4c0-10.4,9-16.3,18.2-16.3
			c4.5,0,9,1.3,12.3,3.9l-4.1,4.7c-2.3-1.6-5.3-2.4-8.2-2.4c-5.9,0-11.7,3.3-11.7,10.2c0,6.9,5.9,10.1,11.7,10.1
			c3.2,0,6.6-1.2,9-3.3L43.1,29.5z"/>
		<path fill="#FFFFFF" d="M134.8,32.9V2.2h6.1v30.7H134.8z"/>
		<path fill="#FFFFFF" d="M237.1,32.9V2.2h6.3v24.6h16.3v6.2H237.1z"/>
		<path fill="#FFFFFF" d="M361,26.7h19.2v6.2H355V2.2h25.3v6.1H361v7.5c2.7-1.5,6.1-1.8,9.6-1.8h4.5v6.1h-4.5
			c-5.6,0-6.9,0.4-9.6,1.8V26.7z"/>
		<path fill="#FFFFFF" d="M102.6,26.3c-1.5,0-3.7-0.2-5.2-2.7l-1.9-3.2c4.4-1.4,7.1-4.3,7.1-9c0-5.3-4-9.3-9.7-9.3H73.2v30.7h6.2
			V20.3h8.4c0.1,0,0.2,0,0.3,0h0.4l4.7,7.7c2.8,4.6,5.8,4.9,9,4.9h2.7v-6.6H102.6z M93,14.2L93,14.2l-13.6,0V8.3h12.5
			c2.1,0,4.5,0.2,4.5,3C96.4,13.2,94.8,14.2,93,14.2z"/>
		<path fill="#FFFFFF" d="M190.8,2.2H189h-1.8l-16.2,30.7h6.7l2.4-4.6h17.8l2.4,4.6h6.7L190.8,2.2z M183,22.7l6-11.4l6,11.4H183z"/>
		<g>
			<polygon fill="#FFFFFF" points="320.5,2.2 307.4,19.6 294.3,2.2 289.8,2.2 289.8,7.1 289.8,32.9 296.5,32.9 296.5,14.9
				307.4,29.4 318.2,14.9 318.2,32.9 324.9,32.9 324.9,2.2 			"/>
		</g>
	</g>
</g>
</svg>
