<?xml version="1.0" encoding="utf-8"?>
<!-- Generator: Adobe Illustrator 18.0.0, SVG Export Plug-In . SVG Version: 6.00 Build 0)  -->
<!DOCTYPE svg PUBLIC "-//W3C//DTD SVG 1.1//EN" "http://www.w3.org/Graphics/SVG/1.1/DTD/svg11.dtd">
<svg version="1.1" id="Layer_1" xmlns="http://www.w3.org/2000/svg" xmlns:xlink="http://www.w3.org/1999/xlink" x="0px" y="0px"
	 viewBox="0 663 612 129" enable-background="new 0 663 612 129" xml:space="preserve">
<g>
	<path fill="#52565D" d="M54.4,775.5c-5.5,4.7-12.9,7.1-20.5,7.1c-15.1,0-29.3-9.8-29.3-26.5c0-16.9,14.5-26.3,29.4-26.3
		c7.3,0,14.5,2.2,20,6.3l-6.6,7.7c-3.7-2.6-8.6-3.9-13.4-3.9c-9.6,0-18.9,5.2-18.9,16.6c0,11.2,9.5,16.5,19,16.5
		c5.1,0,10.7-2,14.5-5.3L54.4,775.5z"/>
	<path fill="#52565D" d="M202.9,781.1v-49.7h9.8v49.7H202.9z"/>
	<path fill="#52565D" d="M368.3,781.1v-49.7h10.3v39.7H405v10H368.3z"/>
	<path fill="#52565D" d="M568.9,771.1H600v10h-40.8v-49.7H600v9.9h-31.1v12.1c4.3-2.5,9.8-2.9,15.5-2.9h7.3v9.8h-7.3
		c-9.2,0-11.2,0.6-15.5,2.9V771.1z"/>
	<path fill="#52565D" d="M150.8,770.4c-2.5,0-6-0.4-8.3-4.4l-3.1-5.1c7.2-2.2,11.4-6.9,11.4-14.5c0-8.6-6.5-15-15.6-15h-32.1v49.7
		h10.1v-20.3h13.5c0.1,0,0.3,0,0.4,0h0.7l7.7,12.4c4.6,7.5,9.4,7.9,14.5,7.9h4.3v-10.7H150.8z M135.2,750.8L135.2,750.8h-22v-9.6
		h20.3c3.5,0,7.3,0.4,7.3,4.8C140.7,749.2,138.1,750.8,135.2,750.8z"/>
	<path fill="#52565D" d="M293.5,731.4h-2.9h-2.9l-26.2,49.7h10.8l3.9-7.5H305l3.9,7.5h10.8L293.5,731.4z M280.8,764.6l9.7-18.4
		l9.7,18.4H280.8z"/>
	<g>
		<polygon fill="#52565D" points="503.3,731.4 482.1,759.5 460.8,731.4 453.6,731.4 453.6,739.3 453.6,781.1 464.5,781.1 464.5,752 
			482.1,775.4 499.6,752 499.6,781.1 510.4,781.1 510.4,731.4 		"/>
	</g>
</g>
<g>
	<path fill="#52565D" d="M215.9,682v-1h16.3v1"/>
	<path fill="#52565D" d="M250.5,674.7h6.2v1.4H252v3.3h4.4v1.4H252v3.3h4.7v1.4h-6.4v-10.9h0.2V674.7z"/>
	<path fill="#52565D" d="M267.5,681l-1.2-0.7c-0.7-0.4-1.2-0.9-1.5-1.3s-0.5-0.9-0.5-1.5c0-0.8,0.3-1.5,0.9-2.1
		c0.6-0.6,1.3-0.8,2.4-0.8c0.9,0,1.7,0.2,2.5,0.7v1.7c-0.8-0.6-1.6-1-2.6-1c-0.5,0-0.9,0.1-1.2,0.3c-0.3,0.2-0.5,0.5-0.5,0.9
		c0,0.3,0.1,0.6,0.4,0.9c0.2,0.3,0.6,0.6,1.1,0.9l1.2,0.7c1.3,0.8,2,1.9,2,3.1c0,0.9-0.3,1.5-0.9,2.2c-0.6,0.5-1.3,0.8-2.3,0.8
		s-2.1-0.3-3-1v-2c0.8,1,1.9,1.6,2.9,1.6c0.5,0,0.9-0.1,1.2-0.4c0.3-0.3,0.5-0.6,0.5-1C269,682.2,268.5,681.6,267.5,681z"/>
	<path fill="#52565D" d="M277.6,674.6h9.2v1.4H283v9.6h-1.5V676h-3.7v-1.4H277.6z"/>
	<path fill="#52565D" d="M307.4,674.7h1.5v10.9h-1.5V674.7z"/>
	<path fill="#52565D" d="M321.6,685.7l-0.9-1.1c0.8-0.5,1.5-1.1,2.2-1.9c0.6-0.7,1-1.4,1.2-2.3c-0.5,0.3-1,0.4-1.7,0.4
		c-0.8,0-1.5-0.3-2.2-0.9c-0.6-0.6-0.9-1.3-0.9-2.3s0.3-1.6,0.9-2.3c0.6-0.6,1.4-0.9,2.4-0.9s1.9,0.4,2.6,1.1c0.6,0.7,1,1.7,1,2.9
		c0,1.3-0.4,2.7-1.2,4C324,683.9,323,684.9,321.6,685.7z M324.3,678.9c0.1-0.4,0.1-0.7,0.1-0.8c0-0.6-0.2-1.1-0.5-1.5
		c-0.3-0.4-0.8-0.6-1.3-0.6s-0.9,0.2-1.2,0.5c-0.3,0.3-0.5,0.7-0.5,1.3c0,0.5,0.2,0.9,0.5,1.2c0.3,0.3,0.8,0.5,1.3,0.5
		C323.2,679.6,323.8,679.4,324.3,678.9z"/>
	<path fill="#52565D" d="M333.8,677.6c0-0.8,0.3-1.5,0.9-2.2c0.6-0.6,1.4-0.9,2.4-0.9c0.9,0,1.6,0.3,2.3,0.9
		c0.6,0.6,0.9,1.3,0.9,2.2s-0.4,1.7-1.3,2.4c1,0.6,1.5,1.4,1.5,2.6c0,0.9-0.3,1.6-1,2.3c-0.6,0.6-1.4,0.9-2.5,0.9s-1.9-0.3-2.5-0.9
		c-0.6-0.6-1-1.3-1-2.3c0-1.1,0.5-2,1.5-2.6c-0.5-0.4-0.8-0.7-1-1.1C333.9,678.5,333.8,678.1,333.8,677.6z M338.9,682.6v-0.2
		c0-0.5-0.2-0.9-0.5-1.2c-0.3-0.3-0.8-0.5-1.3-0.5s-1,0.2-1.3,0.5c-0.3,0.3-0.5,0.7-0.5,1.2s0.2,0.9,0.5,1.2
		c0.3,0.3,0.8,0.5,1.4,0.5c0.5,0,1-0.1,1.3-0.4C338.8,683.5,338.9,683.2,338.9,682.6z M338.8,677.7c0-0.5-0.2-0.8-0.5-1.1
		c-0.3-0.3-0.7-0.4-1.2-0.4s-0.9,0.1-1.2,0.4c-0.3,0.3-0.5,0.7-0.5,1.1s0.2,0.8,0.5,1.1c0.3,0.3,0.7,0.5,1.2,0.5s0.9-0.2,1.2-0.5
		C338.7,678.5,338.8,678.1,338.8,677.7z"/>
	<path fill="#52565D" d="M353.1,674.5h0.6v6.2h1.2v1.3h-1.2v3.6h-1.5V682h-4.5v-0.7L353.1,674.5z M352.3,680.7v-3.2l-2.6,3.2H352.3z
		"/>
	<path fill="#52565D" d="M372.5,681h16.3v1h-16.3V681z"/>
</g>
</svg>
